<?xml version="1.0" standalone="no"?>
<!DOCTYPE svg PUBLIC "-//W3C//DTD SVG 20010904//EN"
 "http://www.w3.org/TR/2001/REC-SVG-20010904/DTD/svg10.dtd">
<svg version="1.0" xmlns="http://www.w3.org/2000/svg"
 width="198.000000pt" height="198.000000pt" viewBox="0 0 198.000000 198.000000"
 preserveAspectRatio="xMidYMid meet">
<metadata>
Created by potrace 1.14, written by Peter Selinger 2001-2017
</metadata>
<g transform="translate(0.000000,198.000000) scale(0.100000,-0.100000)"
fill="#000000" stroke="none">
<path d="M940 1363 c-16 -16 -32 -39 -34 -53 -5 -32 20 -75 53 -91 l26 -12
-30 -7 c-16 -4 -34 -8 -40 -10 -28 -7 -47 3 -56 29 -6 16 -17 32 -25 35 -22 8
-52 -10 -56 -34 -2 -12 -7 -20 -12 -20 -16 3 -25 -24 -32 -91 -3 -35 -6 -66
-6 -69 -1 -29 5 -30 232 -30 212 0 230 1 230 18 0 19 -32 89 -52 113 -21 26
-81 59 -107 59 -24 0 -24 0 -5 15 21 16 8 20 -15 6 -18 -12 -64 10 -85 40 -13
19 -13 60 1 82 3 5 19 17 37 28 17 10 25 19 19 19 -7 0 -26 -12 -43 -27z
m-100 -128 c19 -23 6 -43 -24 -38 -38 8 -34 47 5 52 4 1 12 -6 19 -14z m-46
-57 c3 6 14 9 24 7 9 -2 20 -4 23 -4 18 -2 18 -36 0 -55 -17 -19 -35 -63 -36
-91 0 -5 -15 -11 -34 -13 l-34 -3 7 78 c7 72 22 106 37 81 4 -7 9 -7 13 0z
m86 -9 c0 -5 -4 -9 -10 -9 -5 0 -10 7 -10 16 0 8 5 12 10 9 6 -3 10 -10 10
-16z"/>
<path d="M1050 1354 c14 -16 26 -31 28 -33 1 -2 2 2 2 10 0 8 -13 23 -28 33
l-27 19 25 -29z"/>
<path d="M1155 1361 c-25 -4 -40 -11 -41 -21 0 -9 1 -10 3 -2 5 15 123 17 123
2 0 -5 5 -10 12 -10 18 0 -13 27 -37 32 -11 3 -38 2 -60 -1z"/>
<path d="M1130 1304 c0 -17 22 -14 28 4 2 7 -3 12 -12 12 -9 0 -16 -7 -16 -16z"/>
<path d="M1170 1310 c0 -15 14 -19 27 -9 8 7 13 8 13 1 0 -5 11 -9 25 -9 24 0
24 1 8 12 -19 13 -73 17 -73 5z"/>
<path d="M1103 1268 c-2 -32 0 -39 9 -30 7 7 37 13 68 14 l55 2 -50 3 c-55 5
-77 17 -68 39 3 8 1 14 -3 14 -5 0 -10 -19 -11 -42z"/>
<path d="M1063 1263 c-7 -15 -11 -28 -9 -31 6 -6 28 38 24 48 -2 5 -9 -3 -15
-17z"/>
<path d="M1006 965 c-9 -9 -22 -25 -30 -36 -14 -21 -86 -44 -86 -29 0 5 12 22
26 39 l26 31 -33 0 c-26 0 -40 -8 -66 -37 -18 -21 -33 -41 -33 -44 0 -3 14 -4
30 -1 33 5 37 0 18 -20 -7 -8 -21 -23 -31 -35 l-19 -22 38 5 c28 3 48 15 74
43 32 36 84 58 95 41 2 -4 -5 -16 -16 -26 -12 -10 -25 -26 -29 -34 -7 -13 -3
-15 26 -12 25 3 43 15 64 41 l31 36 -32 3 -32 3 34 35 33 34 -36 0 c-20 0 -44
-7 -52 -15z"/>
<path d="M537 898 c-79 -17 -157 -74 -157 -115 0 -24 32 -51 70 -58 54 -10 89
-27 84 -39 -15 -38 -156 -65 -175 -34 -7 10 -11 10 -21 0 -16 -16 0 -44 33
-56 33 -11 129 9 171 37 40 28 49 68 19 93 -11 10 -48 26 -82 36 l-61 19 22
24 c28 30 123 72 128 56 4 -12 41 -15 66 -5 19 7 22 44 4 45 -7 1 -24 2 -38 3
-14 1 -42 -1 -63 -6z"/>
<path d="M1486 824 c-10 -26 4 -37 25 -18 10 9 19 21 19 26 0 15 -38 8 -44 -8z"/>
<path d="M1070 780 c-8 -5 -11 -12 -8 -16 14 -13 -37 -87 -85 -123 -16 -13
-16 -12 -4 15 7 16 21 44 31 63 24 46 8 61 -34 31 -23 -16 -29 -27 -24 -42 4
-14 -2 -29 -22 -49 -51 -53 -58 -32 -17 48 30 61 23 82 -14 38 -59 -71 -95
-107 -100 -101 -4 3 6 29 21 57 16 28 25 53 22 56 -13 14 -36 -10 -65 -67 -24
-48 -28 -67 -20 -81 13 -24 30 -24 62 1 26 21 42 26 33 11 -3 -5 1 -14 9 -21
12 -10 21 -10 41 -1 19 8 30 9 39 1 31 -26 140 73 168 152 8 21 -14 40 -33 28z"/>
<path d="M663 750 c-31 -21 -73 -91 -73 -123 0 -20 35 -40 58 -33 47 16 129
128 113 154 -14 23 -64 24 -98 2z m57 -34 c0 -18 -65 -86 -83 -86 -23 0 -10
36 29 77 31 33 54 37 54 9z"/>
<path d="M1153 755 c-33 -14 -58 -48 -50 -69 3 -7 -4 -21 -15 -30 -18 -16 -18
-19 -5 -39 11 -17 23 -22 53 -20 22 1 50 3 64 3 17 1 38 17 65 50 22 27 51 56
64 66 l24 17 -21 -31 c-48 -67 -33 -129 24 -103 19 9 30 9 40 0 28 -23 77 1
141 70 42 45 60 59 56 44 -8 -35 23 -29 42 7 8 16 15 34 15 40 0 15 -32 12
-58 -6 -20 -14 -22 -14 -22 1 0 32 -34 9 -66 -44 -31 -54 -72 -96 -82 -86 -3
3 10 34 28 69 19 36 31 68 27 72 -12 12 -57 -18 -57 -37 0 -39 -70 -123 -84
-101 -3 5 7 29 22 53 16 24 31 52 35 62 10 26 -20 34 -54 15 -24 -14 -27 -14
-22 -1 4 11 1 14 -13 11 -10 -2 -34 -27 -54 -56 -36 -54 -82 -92 -112 -92 -32
0 -29 20 7 41 37 22 43 47 10 41 -17 -3 -17 -2 -5 13 8 10 22 14 34 11 23 -6
46 9 46 30 0 18 -36 17 -77 -1z"/>
</g>
</svg>
